<svg width="459" height="150" viewBox="0 0 459 150" fill="none" xmlns="http://www.w3.org/2000/svg">
<path d="M224.496 59.608L208.08 116.056H190.416L174 59.608H189.456L198.96 103.384H199.536L209.04 59.608H224.496Z" fill="#A72693"/>
<path d="M248.205 116.056H233.325V67.608L248.205 59.608V116.056Z" fill="#A72693"/>
<path d="M277.604 117.304C272.868 117.304 268.932 115.672 265.796 112.408C262.724 109.144 261.188 104.408 261.188 98.2C261.188 91.992 263.364 87.48 267.716 84.664C272.132 81.848 278.532 80.44 286.916 80.44H294.116C294.116 76.152 293.7 73.4 292.868 72.184C292.036 70.904 290.148 70.264 287.204 70.264C284.324 70.264 281.092 70.584 277.508 71.224C273.988 71.864 270.052 72.824 265.7 74.104L262.628 63.352C265.252 62.136 268.996 61.016 273.86 59.992C278.788 58.904 283.172 58.36 287.012 58.36C294.884 58.36 300.516 60.184 303.908 63.832C307.3 67.416 308.996 72.664 308.996 79.576V116.056H299.588L297.668 109.816H297.092C296.324 110.392 295.3 111.096 294.02 111.928C292.804 112.76 290.468 113.88 287.012 115.288C283.556 116.632 280.42 117.304 277.604 117.304ZM294.116 91.48C291.876 91.16 288.868 91 285.092 91C281.38 91 278.98 91.48 277.892 92.44C276.868 93.4 276.356 95.224 276.356 97.912C276.356 100.6 276.772 102.488 277.604 103.576C278.5 104.6 279.844 105.112 281.636 105.112C284.964 105.112 288.484 104.216 292.196 102.424L294.116 101.464V91.48Z" fill="#A72693"/>
<path d="M323.115 41L337.995 33V59.8C342.667 58.84 346.795 58.36 350.379 58.36C364.331 58.36 371.307 67.928 371.307 87.064C371.307 92.952 370.635 97.976 369.291 102.136C368.011 106.232 366.251 109.336 364.011 111.448C359.787 115.352 354.603 117.304 348.459 117.304C345.195 117.304 341.067 116.888 336.075 116.056C331.147 115.224 326.827 114.232 323.115 113.08V41ZM353.739 71.896C352.843 71 351.307 70.552 349.131 70.552C345.163 70.552 341.451 70.968 337.995 71.8V104.344C341.323 104.984 344.331 105.304 347.019 105.304C349.771 105.304 351.627 104.92 352.587 104.152C354.827 102.296 355.947 96.056 355.947 85.432C355.947 77.816 355.211 73.304 353.739 71.896Z" fill="#A72693"/>
<path d="M397.901 116.056H383.021V41L397.901 33V116.056Z" fill="#A72693"/>
<path d="M435.7 117.304C418.292 117.304 409.588 107.48 409.588 87.832C409.588 68.184 418.228 58.36 435.508 58.36C443.252 58.36 449.076 60.44 452.98 64.6C456.884 68.696 458.836 75.512 458.836 85.048V93.016H425.044C425.044 98.392 426.036 101.944 428.02 103.672C429.364 104.888 431.252 105.496 433.684 105.496C438.164 105.496 443.86 104.472 450.772 102.424L454.132 101.368L457.78 112.12C454.9 113.464 451.316 114.68 447.028 115.768C442.74 116.792 438.964 117.304 435.7 117.304ZM441.94 72.184C440.788 70.776 438.484 70.072 435.028 70.072C431.572 70.072 429.108 70.904 427.636 72.568C426.164 74.232 425.332 77.464 425.14 82.264L443.668 81.88C443.54 76.824 442.964 73.592 441.94 72.184Z" fill="#A72693"/>
<path d="M3.68513e-06 80.8832C-0.00404134 68.4976 3.32204 56.3387 9.62996 45.6797C15.9379 35.0208 24.9956 26.2538 35.8546 20.297C46.7137 14.3401 58.9746 11.4124 71.3534 11.8204C83.7323 12.2285 95.7738 15.9572 106.217 22.6163L106.317 28.3663L100.134 34.5496C88.6212 26.8409 74.6524 23.6915 60.9459 25.7143C47.2395 27.7372 34.776 34.7876 25.9812 45.4933C17.1865 56.199 12.6898 69.7941 13.3662 83.6325C14.0427 97.471 19.844 110.563 29.6409 120.36C39.4379 130.156 52.5296 135.958 66.368 136.634C80.2065 137.31 93.8015 132.814 104.507 124.019C115.213 115.224 122.263 102.76 124.286 89.0539C126.309 75.3474 123.159 61.3786 115.45 49.8662L121.634 43.6829L127.384 43.783C133.146 52.8306 136.722 63.0955 137.83 73.7647C138.937 84.4339 137.546 95.2145 133.766 105.253C129.985 115.291 123.92 124.312 116.05 131.6C108.179 138.888 98.7204 144.244 88.4217 147.243C78.1231 150.243 67.2675 150.804 56.7147 148.881C46.1618 146.958 36.2014 142.606 27.6222 136.167C19.043 129.728 12.0806 121.381 7.28625 111.785C2.49191 102.19 -0.00267977 91.6097 3.68513e-06 80.8831V80.8832ZM69.1169 55.3163C72.0902 55.3085 75.0414 55.8277 77.8336 56.8498L87.8669 46.8166C82.1299 43.6364 75.6763 41.9727 69.1168 41.983C60.5875 41.9795 52.2934 44.7795 45.5113 49.9519C38.7293 55.1243 33.8353 62.3824 31.5826 70.609C29.33 78.8355 29.8436 87.5744 33.0445 95.4804C36.2453 103.386 41.9559 110.021 49.2972 114.363C56.6385 118.706 65.2035 120.515 73.6737 119.512C82.144 118.509 90.0499 114.751 96.1744 108.814C102.299 102.878 106.303 95.0933 107.569 86.6584C108.836 78.2236 107.295 69.6063 103.184 62.1331L93.1503 72.1665C95.0034 77.2767 95.1795 82.8446 93.653 88.0617C92.1265 93.2788 88.9768 97.8736 84.6613 101.179C80.3458 104.484 75.0891 106.328 69.6545 106.442C64.2198 106.557 58.8901 104.936 54.4393 101.816C49.9884 98.695 46.648 94.237 44.9031 89.0888C43.1582 83.9406 43.0996 78.3703 44.7358 73.1866C46.3721 68.0028 49.618 63.4755 54.0023 60.2621C58.3866 57.0486 63.681 55.3162 69.1168 55.3163L69.1169 55.3163ZM74.1805 69.9268C71.5981 68.7289 68.6763 68.4784 65.9277 69.2193C63.179 69.9602 60.779 71.6452 59.1486 73.9787C57.5181 76.3123 56.7613 79.1454 57.0109 81.9812C57.2605 84.817 58.5006 87.4744 60.5137 89.4872C62.5267 91.5001 65.1842 92.7399 68.02 92.9893C70.8558 93.2386 73.6889 92.4815 76.0223 90.8509C78.3557 89.2202 80.0405 86.82 80.7811 84.0713C81.5218 81.3225 81.271 78.4008 80.0727 75.8185L118.929 36.963L128.49 37.1388C129.294 37.1537 130.094 37.0061 130.84 36.7049C131.587 36.4037 132.265 35.9551 132.834 35.3859L149.906 18.3136C149.949 18.2708 149.979 18.2166 149.992 18.1574C150.006 18.0983 150.002 18.0366 149.981 17.9796C149.961 17.9225 149.924 17.8725 149.876 17.8353C149.829 17.7982 149.771 17.7754 149.711 17.7696L134.609 16.3314C134.367 16.3084 134.141 16.202 133.97 16.0304C133.798 15.8589 133.692 15.6329 133.669 15.3914L132.23 0.289217C132.225 0.228883 132.202 0.171431 132.165 0.123563C132.127 0.0756958 132.077 0.0393854 132.02 0.0188687C131.963 -0.00164799 131.902 -0.00552555 131.843 0.00768842C131.783 0.0209024 131.729 0.0506631 131.686 0.0934988L114.614 17.166C114.045 17.7351 113.596 18.4132 113.295 19.1597C112.994 19.9061 112.846 20.7057 112.861 21.5105L113.037 31.0706L74.1805 69.9268Z" fill="#A72693"/>
</svg>
